<?xml version="1.0" encoding="UTF-8" standalone="no"?>
<!DOCTYPE svg PUBLIC "-//W3C//DTD SVG 1.1//EN"
 "http://www.w3.org/Graphics/SVG/1.1/DTD/svg11.dtd">
<!-- Generated by graphviz version 2.36.0 (20140111.2315)
 -->
<!-- Title: G Pages: 1 -->
<svg width="454pt" height="1540pt"
 viewBox="0.00 0.00 454.00 1540.00" xmlns="http://www.w3.org/2000/svg" xmlns:xlink="http://www.w3.org/1999/xlink">
<g id="graph0" class="graph" transform="scale(1 1) rotate(0) translate(4 1536)">
<title>G</title>
<polygon fill="white" stroke="none" points="-4,4 -4,-1536 450,-1536 450,4 -4,4"/>
<!-- n1 -->
<g id="node1" class="node"><title>n1</title>
<g id="a_node1"><a xlink:title="[2_model.lua]:119_">
<ellipse fill="green" stroke="black" cx="223" cy="-150" rx="113.267" ry="37.4533"/>
<text text-anchor="middle" x="223" y="-161.3" font-family="Times,serif" font-size="14.00">Softmax layer (1)</text>
<text text-anchor="start" x="150.5" y="-146.3" font-family="Times,serif" font-size="14.00">module = nn.LogSoftMax</text>
<text text-anchor="middle" x="223" y="-131.3" font-family="Times,serif" font-size="14.00">reverseMap = {}</text>
</a>
</g>
</g>
<!-- n2 -->
<g id="node2" class="node"><title>n2</title>
<g id="a_node2"><a xlink:title="[[C]]:&#45;1_">
<ellipse fill="none" stroke="black" cx="223" cy="-38" rx="77.1743" ry="37.4533"/>
<text text-anchor="middle" x="223" y="-49.3" font-family="Times,serif" font-size="14.00">Node2</text>
<text text-anchor="start" x="176" y="-34.3" font-family="Times,serif" font-size="14.00">input = {}</text>
<text text-anchor="middle" x="223" y="-19.3" font-family="Times,serif" font-size="14.00">reverseMap = {}</text>
</a>
</g>
</g>
<!-- n1&#45;&gt;n2 -->
<g id="edge1" class="edge"><title>n1&#45;&gt;n2</title>
<path fill="none" stroke="black" d="M223,-112.372C223,-103.927 223,-94.8286 223,-86.0106"/>
<polygon fill="black" stroke="black" points="226.5,-85.8435 223,-75.8435 219.5,-85.8435 226.5,-85.8435"/>
</g>
<!-- n3 -->
<g id="node3" class="node"><title>n3</title>
<g id="a_node3"><a xlink:title="[2_model.lua]:114_">
<ellipse fill="orange" stroke="black" cx="223" cy="-262" rx="128.54" ry="37.4533"/>
<text text-anchor="middle" x="223" y="-273.3" font-family="Times,serif" font-size="14.00">output layer (3)</text>
<text text-anchor="start" x="140" y="-258.3" font-family="Times,serif" font-size="14.00">module = nn.Linear(150 &#45;&gt; 5)</text>
<text text-anchor="middle" x="223" y="-243.3" font-family="Times,serif" font-size="14.00">reverseMap = {}</text>
</a>
</g>
</g>
<!-- n3&#45;&gt;n1 -->
<g id="edge2" class="edge"><title>n3&#45;&gt;n1</title>
<path fill="none" stroke="black" d="M223,-224.372C223,-215.927 223,-206.829 223,-198.011"/>
<polygon fill="black" stroke="black" points="226.5,-197.843 223,-187.844 219.5,-197.844 226.5,-197.843"/>
</g>
<!-- n4 -->
<g id="node4" class="node"><title>n4</title>
<g id="a_node4"><a xlink:title="[2_model.lua]:109_">
<ellipse fill="orange" stroke="black" cx="223" cy="-374" rx="138.389" ry="37.4533"/>
<text text-anchor="middle" x="223" y="-385.3" font-family="Times,serif" font-size="14.00">Fully connected layer &#45; 2 (4)</text>
<text text-anchor="start" x="133" y="-370.3" font-family="Times,serif" font-size="14.00">module = nn.Linear(150 &#45;&gt; 150)</text>
<text text-anchor="middle" x="223" y="-355.3" font-family="Times,serif" font-size="14.00">reverseMap = {}</text>
</a>
</g>
</g>
<!-- n4&#45;&gt;n3 -->
<g id="edge3" class="edge"><title>n4&#45;&gt;n3</title>
<path fill="none" stroke="black" d="M223,-336.372C223,-327.927 223,-318.829 223,-310.011"/>
<polygon fill="black" stroke="black" points="226.5,-309.843 223,-299.844 219.5,-309.844 226.5,-309.843"/>
</g>
<!-- n5 -->
<g id="node5" class="node"><title>n5</title>
<g id="a_node5"><a xlink:title="[2_model.lua]:104_">
<ellipse fill="orange" stroke="black" cx="223" cy="-486" rx="133.465" ry="37.4533"/>
<text text-anchor="middle" x="223" y="-497.3" font-family="Times,serif" font-size="14.00">Fully connected layer &#45; 1 (5)</text>
<text text-anchor="start" x="136.5" y="-482.3" font-family="Times,serif" font-size="14.00">module = nn.Linear(80 &#45;&gt; 150)</text>
<text text-anchor="middle" x="223" y="-467.3" font-family="Times,serif" font-size="14.00">reverseMap = {}</text>
</a>
</g>
</g>
<!-- n5&#45;&gt;n4 -->
<g id="edge4" class="edge"><title>n5&#45;&gt;n4</title>
<path fill="none" stroke="black" d="M223,-448.372C223,-439.927 223,-430.829 223,-422.011"/>
<polygon fill="black" stroke="black" points="226.5,-421.843 223,-411.844 219.5,-421.844 226.5,-421.843"/>
</g>
<!-- n6 -->
<g id="node6" class="node"><title>n6</title>
<g id="a_node6"><a xlink:title="[2_model.lua]:99_">
<ellipse fill="brown" stroke="black" cx="223" cy="-598" rx="112.145" ry="37.4533"/>
<text text-anchor="middle" x="223" y="-609.3" font-family="Times,serif" font-size="14.00">Reshaping unit (6)</text>
<text text-anchor="start" x="151.5" y="-594.3" font-family="Times,serif" font-size="14.00">module = nn.Reshape(80)</text>
<text text-anchor="middle" x="223" y="-579.3" font-family="Times,serif" font-size="14.00">reverseMap = {}</text>
</a>
</g>
</g>
<!-- n6&#45;&gt;n5 -->
<g id="edge5" class="edge"><title>n6&#45;&gt;n5</title>
<path fill="none" stroke="black" d="M223,-560.372C223,-551.927 223,-542.829 223,-534.011"/>
<polygon fill="black" stroke="black" points="226.5,-533.843 223,-523.844 219.5,-533.844 226.5,-533.843"/>
</g>
<!-- n7 -->
<g id="node7" class="node"><title>n7</title>
<g id="a_node7"><a xlink:title="[2_model.lua]:94_">
<ellipse fill="grey" stroke="black" cx="223" cy="-710" rx="190.378" ry="37.4533"/>
<text text-anchor="middle" x="223" y="-721.3" font-family="Times,serif" font-size="14.00">Average pooling unit(3) (7)</text>
<text text-anchor="start" x="96" y="-706.3" font-family="Times,serif" font-size="14.00">module = nn.SpatialAveragePooling(2x2, 2,2)</text>
<text text-anchor="middle" x="223" y="-691.3" font-family="Times,serif" font-size="14.00">reverseMap = {}</text>
</a>
</g>
</g>
<!-- n7&#45;&gt;n6 -->
<g id="edge6" class="edge"><title>n7&#45;&gt;n6</title>
<path fill="none" stroke="black" d="M223,-672.372C223,-663.927 223,-654.829 223,-646.011"/>
<polygon fill="black" stroke="black" points="226.5,-645.843 223,-635.844 219.5,-645.844 226.5,-645.843"/>
</g>
<!-- n8 -->
<g id="node8" class="node"><title>n8</title>
<g id="a_node8"><a xlink:title="[2_model.lua]:89_">
<ellipse fill="cyan" stroke="black" cx="223" cy="-822" rx="223.169" ry="37.4533"/>
<text text-anchor="middle" x="223" y="-833.3" font-family="Times,serif" font-size="14.00">Convolution unit(3) (8)</text>
<text text-anchor="start" x="73" y="-818.3" font-family="Times,serif" font-size="14.00">module = nn.SpatialConvolution(5 &#45;&gt; 5, 5x5, 1,1, 2,2)</text>
<text text-anchor="middle" x="223" y="-803.3" font-family="Times,serif" font-size="14.00">reverseMap = {}</text>
</a>
</g>
</g>
<!-- n8&#45;&gt;n7 -->
<g id="edge7" class="edge"><title>n8&#45;&gt;n7</title>
<path fill="none" stroke="black" d="M223,-784.372C223,-775.927 223,-766.829 223,-758.011"/>
<polygon fill="black" stroke="black" points="226.5,-757.843 223,-747.844 219.5,-757.844 226.5,-757.843"/>
</g>
<!-- n9 -->
<g id="node9" class="node"><title>n9</title>
<g id="a_node9"><a xlink:title="[2_model.lua]:83_">
<ellipse fill="grey" stroke="black" cx="223" cy="-934" rx="190.378" ry="37.4533"/>
<text text-anchor="middle" x="223" y="-945.3" font-family="Times,serif" font-size="14.00">Average pooling unit(2) (9)</text>
<text text-anchor="start" x="96" y="-930.3" font-family="Times,serif" font-size="14.00">module = nn.SpatialAveragePooling(2x2, 2,2)</text>
<text text-anchor="middle" x="223" y="-915.3" font-family="Times,serif" font-size="14.00">reverseMap = {}</text>
</a>
</g>
</g>
<!-- n9&#45;&gt;n8 -->
<g id="edge8" class="edge"><title>n9&#45;&gt;n8</title>
<path fill="none" stroke="black" d="M223,-896.372C223,-887.927 223,-878.829 223,-870.011"/>
<polygon fill="black" stroke="black" points="226.5,-869.843 223,-859.844 219.5,-869.844 226.5,-869.843"/>
</g>
<!-- n10 -->
<g id="node10" class="node"><title>n10</title>
<g id="a_node10"><a xlink:title="[2_model.lua]:78_">
<ellipse fill="cyan" stroke="black" cx="223" cy="-1046" rx="223.169" ry="37.4533"/>
<text text-anchor="middle" x="223" y="-1057.3" font-family="Times,serif" font-size="14.00">Convolution unit(2) (10)</text>
<text text-anchor="start" x="73" y="-1042.3" font-family="Times,serif" font-size="14.00">module = nn.SpatialConvolution(5 &#45;&gt; 5, 5x5, 1,1, 2,2)</text>
<text text-anchor="middle" x="223" y="-1027.3" font-family="Times,serif" font-size="14.00">reverseMap = {}</text>
</a>
</g>
</g>
<!-- n10&#45;&gt;n9 -->
<g id="edge9" class="edge"><title>n10&#45;&gt;n9</title>
<path fill="none" stroke="black" d="M223,-1008.37C223,-999.927 223,-990.829 223,-982.011"/>
<polygon fill="black" stroke="black" points="226.5,-981.843 223,-971.844 219.5,-981.844 226.5,-981.843"/>
</g>
<!-- n11 -->
<g id="node11" class="node"><title>n11</title>
<g id="a_node11"><a xlink:title="[2_model.lua]:73_">
<ellipse fill="grey" stroke="black" cx="223" cy="-1158" rx="190.378" ry="37.4533"/>
<text text-anchor="middle" x="223" y="-1169.3" font-family="Times,serif" font-size="14.00">Average pooling unit(1) (11)</text>
<text text-anchor="start" x="96" y="-1154.3" font-family="Times,serif" font-size="14.00">module = nn.SpatialAveragePooling(2x2, 2,2)</text>
<text text-anchor="middle" x="223" y="-1139.3" font-family="Times,serif" font-size="14.00">reverseMap = {}</text>
</a>
</g>
</g>
<!-- n11&#45;&gt;n10 -->
<g id="edge10" class="edge"><title>n11&#45;&gt;n10</title>
<path fill="none" stroke="black" d="M223,-1120.37C223,-1111.93 223,-1102.83 223,-1094.01"/>
<polygon fill="black" stroke="black" points="226.5,-1093.84 223,-1083.84 219.5,-1093.84 226.5,-1093.84"/>
</g>
<!-- n12 -->
<g id="node12" class="node"><title>n12</title>
<g id="a_node12"><a xlink:title="[2_model.lua]:68_">
<ellipse fill="cyan" stroke="black" cx="223" cy="-1270" rx="223.169" ry="37.4533"/>
<text text-anchor="middle" x="223" y="-1281.3" font-family="Times,serif" font-size="14.00">Convolution unit(1) (12)</text>
<text text-anchor="start" x="73" y="-1266.3" font-family="Times,serif" font-size="14.00">module = nn.SpatialConvolution(3 &#45;&gt; 5, 5x5, 1,1, 2,2)</text>
<text text-anchor="middle" x="223" y="-1251.3" font-family="Times,serif" font-size="14.00">reverseMap = {}</text>
</a>
</g>
</g>
<!-- n12&#45;&gt;n11 -->
<g id="edge11" class="edge"><title>n12&#45;&gt;n11</title>
<path fill="none" stroke="black" d="M223,-1232.37C223,-1223.93 223,-1214.83 223,-1206.01"/>
<polygon fill="black" stroke="black" points="226.5,-1205.84 223,-1195.84 219.5,-1205.84 226.5,-1205.84"/>
</g>
<!-- n13 -->
<g id="node13" class="node"><title>n13</title>
<g id="a_node13"><a xlink:title="[2_model.lua]:67_">
<ellipse fill="none" stroke="black" cx="223" cy="-1382" rx="94.0678" ry="37.4533"/>
<text text-anchor="middle" x="223" y="-1393.3" font-family="Times,serif" font-size="14.00">Node13</text>
<text text-anchor="start" x="164.5" y="-1378.3" font-family="Times,serif" font-size="14.00">module = nn.Identity</text>
<text text-anchor="middle" x="223" y="-1363.3" font-family="Times,serif" font-size="14.00">reverseMap = {}</text>
</a>
</g>
</g>
<!-- n13&#45;&gt;n12 -->
<g id="edge12" class="edge"><title>n13&#45;&gt;n12</title>
<path fill="none" stroke="black" d="M223,-1344.37C223,-1335.93 223,-1326.83 223,-1318.01"/>
<polygon fill="black" stroke="black" points="226.5,-1317.84 223,-1307.84 219.5,-1317.84 226.5,-1317.84"/>
</g>
<!-- n14 -->
<g id="node14" class="node"><title>n14</title>
<g id="a_node14"><a xlink:title="[[C]]:&#45;1_">
<ellipse fill="none" stroke="black" cx="223" cy="-1494" rx="77.1743" ry="37.4533"/>
<text text-anchor="middle" x="223" y="-1505.3" font-family="Times,serif" font-size="14.00">Node14</text>
<text text-anchor="start" x="176" y="-1490.3" font-family="Times,serif" font-size="14.00">input = {}</text>
<text text-anchor="middle" x="223" y="-1475.3" font-family="Times,serif" font-size="14.00">reverseMap = {}</text>
</a>
</g>
</g>
<!-- n14&#45;&gt;n13 -->
<g id="edge13" class="edge"><title>n14&#45;&gt;n13</title>
<path fill="none" stroke="black" d="M223,-1456.37C223,-1447.93 223,-1438.83 223,-1430.01"/>
<polygon fill="black" stroke="black" points="226.5,-1429.84 223,-1419.84 219.5,-1429.84 226.5,-1429.84"/>
</g>
</g>
</svg>
